<?xml version="1.0" encoding="UTF-8"?>
<svg id="Capa_2" data-name="Capa 2" xmlns="http://www.w3.org/2000/svg" viewBox="0 0 1182.96 1182.96">
  <defs>
    <style>
      .cls-1 {
        fill: #8b883e;
      }

      .cls-1, .cls-2, .cls-3, .cls-4, .cls-5, .cls-6, .cls-7, .cls-8 {
        stroke-width: 0px;
      }

      .cls-2 {
        fill: #fbfdfc;
      }

      .cls-3 {
        fill: #f4ce00;
      }

      .cls-4 {
        fill: #fcea10;
      }

      .cls-5 {
        fill: #f6f5ca;
      }

      .cls-6 {
        fill: #050505;
      }

      .cls-7 {
        fill: #f7f5ca;
      }

      .cls-8 {
        fill: #8b883f;
      }
    </style>
  </defs>
  <g id="Capa_1-2" data-name="Capa 1">
    <g>
      <path class="cls-6" d="M0,122.49c11.15,0,22.31-.11,33.46.07,2.83.05,3.61-.83,3.57-3.94-.17-11.02.04-22.04-.13-33.06-.05-3.14.79-3.97,3.59-3.92,9.99.18,19.98-.05,29.97.15,2.87.06,3.59-.9,3.54-3.97-.16-11.02.05-22.04-.13-33.06-.05-3.19.85-3.94,3.61-3.89,9.82.18,19.65-.11,29.46.17,3.37.09,4.09-1.08,4.03-4.57-.2-10.65.09-21.31-.16-31.96-.09-3.74,1.02-4.91,4.16-4.37.65.11,1.33.02,2,.02C433.28.14,749.6.16,1065.92,0c4.96,0,6.42,1.15,6.15,6.75-.48,10.08-.02,20.2-.2,30.3-.05,3.11.74,4,3.57,3.94,9.99-.19,19.98.04,29.97-.15,2.84-.05,3.61.85,3.56,3.95-.17,11.02.04,22.04-.13,33.06-.05,3.15.8,3.97,3.59,3.92,9.99-.18,19.98.05,29.97-.15,2.88-.06,3.58.91,3.54,3.98-.16,11.02.05,22.04-.13,33.06-.05,3.19.86,3.94,3.62,3.89,9.82-.18,19.65.11,29.46-.17,3.38-.09,4.47,1.1,3.96,4.58-.08.54-.01,1.1-.01,1.65,0,295.18,0,590.36,0,885.54,0,1.83-.1,3.67-.15,5.5-1.89,2-4.31,1.71-6.61,1.73-7.49.07-14.97-.02-22.46.04-5.78.05-6.11.43-6.15,6.99-.06,8.26.01,16.52-.03,24.78-.01,2.56.12,5.18-1.54,7.33l.05-.06c-1.94,1.82-4.3,1.69-6.61,1.71-7.78.05-15.57.15-23.35-.03-4.06-.09-5.62,1.63-5.53,6.11.16,8.58.08,17.17.03,25.76-.01,2.55.1,5.16-1.55,7.3l.05-.06c-1.94,1.82-4.3,1.69-6.61,1.71-7.78.05-15.57.15-23.35-.03-4.06-.09-5.62,1.63-5.53,6.11.16,8.58.08,17.17.03,25.76-.01,2.55.1,5.16-1.55,7.3l.05-.06c-1.48,1.42-3.29,1.66-5.14,1.73-1.83.07-3.66.05-5.49.05-313.3,0-626.6,0-939.9-.04-3.58,0-7.38.96-10.63-1.75l.05.06c-1.65-2.14-1.53-4.75-1.55-7.3-.05-8.59-.13-17.18.03-25.76.08-4.48-1.48-6.2-5.53-6.11-7.78.18-15.57.08-23.35.03-2.31-.02-4.68.12-6.61-1.71l.05.06c-1.65-2.14-1.53-4.75-1.55-7.3-.05-8.59-.13-17.18.03-25.76.08-4.48-1.48-6.2-5.53-6.11-7.78.18-15.57.08-23.35.03-2.31-.02-4.68.12-6.61-1.71l.05.06c-1.65-2.14-1.53-4.74-1.55-7.29-.05-8.58-.13-17.17.03-25.74.08-4.44-1.42-6.23-5.5-6.13-7.77.18-15.56.09-23.33.03-2.3-.02-4.68.15-6.6-1.71V122.49Z"/>
      <path class="cls-3" d="M0,1019.69c10.95,0,21.9.13,32.84-.08,3.3-.06,4.24,1.13,4.19,4.69-.17,12.08-.07,24.16-.07,36.24-12.32-.02-24.64-.05-36.95-.07v-40.78Z"/>
      <path class="cls-3" d="M110.83,1142.05c320.39,0,640.78,0,961.17,0-.02,12.12-.18,24.25.02,36.36.06,3.69-.98,4.98-4.17,4.43-.65-.11-1.33-.02-2-.02-316.3,0-632.59-.01-948.89.13-4.91,0-6.45-1.07-6.22-6.75.46-11.36.1-22.77.08-34.15Z"/>
      <path class="cls-3" d="M1145.87,1060.54c0-11.5.19-23.02-.1-34.51-.12-4.8.82-6.67,5.62-6.47,10.41.43,20.85.12,31.28.11.05,12.48,0,24.96.23,37.43.06,3.26-1.29,3.43-3.58,3.42-11.15-.07-22.29,0-33.44.03Z"/>
      <path class="cls-3" d="M36.9,1060.48c10.96,0,21.92.12,32.87-.08,3.27-.06,4.28,1.05,4.22,4.66-.18,12.09-.07,24.18-.08,36.27-10.97-.02-21.95-.19-32.92.02-3.26.06-4.17-.94-4.11-4.54.19-12.1.04-24.21.02-36.32Z"/>
      <path class="cls-3" d="M1108.91,1101.32c0-12.09.11-24.18-.08-36.27-.05-3.61.95-4.72,4.22-4.66,10.95.2,21.91.08,32.87.08-.02,12.11-.17,24.22.02,36.32.06,3.6-.85,4.6-4.11,4.54-10.97-.21-21.95-.04-32.92-.02Z"/>
      <path class="cls-3" d="M73.87,1101.26c10.96,0,21.92.12,32.87-.08,3.27-.06,4.28,1.05,4.22,4.66-.18,12.09-.07,24.18-.08,36.27-10.97-.02-21.95-.19-32.92.02-3.26.06-4.17-.94-4.11-4.54.19-12.1.04-24.21.02-36.32Z"/>
      <path class="cls-3" d="M1071.95,1142.1c0-12.09.11-24.18-.08-36.27-.05-3.61.95-4.72,4.22-4.66,10.95.2,21.91.08,32.87.09-.02,12.11-.17,24.22.02,36.32.06,3.6-.85,4.6-4.11,4.54-10.97-.21-21.95-.04-32.92-.02Z"/>
      <path class="cls-4" d="M591.52,40.92c145.84,0,291.69.03,437.53-.12,4.65,0,6.31.92,6.05,6.46-.47,9.89.05,19.84-.22,29.75-.11,4,1.11,4.87,4.5,4.78,9.65-.24,19.31.02,28.97-.15,2.84-.05,3.69.88,3.65,4.02-.16,10.65.08,21.31-.14,31.96-.08,3.74.69,5.08,4.33,4.97,9.48-.29,18.98.1,28.46-.2,3.64-.11,4.4,1.24,4.33,4.97-.22,10.46.06,20.94-.15,31.41-.07,3.62.9,4.66,4.16,4.58,9.65-.23,19.31.03,28.97-.15,2.95-.06,4.45.67,3.93,4.22-.13.89-.02,1.83-.02,2.75,0,267.27-.02,534.54.13,801.8,0,5.81-1.37,7.35-6.5,7.07-8.8-.48-17.65.01-26.46-.21-3.21-.08-4.29.85-4.2,4.54.23,9.91-.32,19.86.23,29.75.33,5.93-1.6,6.91-6.36,6.69-8.98-.41-17.98.04-26.97-.2-3.17-.09-3.91,1.05-3.85,4.37.18,10.65-.06,21.31.14,31.96.07,3.55-.79,4.72-4.12,4.63-9.15-.25-18.32.15-27.47-.19-4.16-.15-5.8.7-5.58,5.87.44,10.26,0,20.57.21,30.85.07,3.51-.98,4.67-3.97,4.19-.82-.13-1.66-.02-2.49-.02-291.52,0-583.05-.01-874.57.12-4.83,0-6.62-.92-6.31-6.74.52-9.7-.08-19.47.24-29.19.14-4.3-1.15-5.17-4.76-5.06-9.48.28-18.98-.05-28.47.17-3.09.07-3.97-.9-3.91-4.31.2-10.47-.09-20.94.16-31.41.1-3.98-.69-5.4-4.59-5.26-9.31.35-18.65-.13-27.96.22-3.91.15-4.67-1.3-4.58-5.27.25-10.46-.04-20.94.16-31.41.07-3.42-.84-4.37-3.91-4.3-9.82.21-19.65-.02-29.47.14-2.73.04-4.1-.68-3.68-3.93.14-1.08.02-2.2.02-3.3,0-267.08,0-534.16,0-801.25q0-7.21,6.62-7.22c8.82,0,17.65-.13,26.47.07,3.01.07,4.03-.77,3.95-4.26-.22-10.1.27-20.22-.21-30.3-.27-5.6,1.48-6.63,6.1-6.42,8.97.41,17.98-.05,26.96.21,3.35.1,4.17-1.11,4.11-4.64-.19-10.65.05-21.31-.14-31.96-.06-3.34.71-4.43,3.87-4.35,9.15.24,18.32-.15,27.47.19,4.33.16,6.07-.81,5.83-6.14-.45-9.71.12-19.48-.23-29.19-.17-4.7,1.16-5.66,5.24-5.66,97.73.13,195.46.1,293.19.1h145.35Z"/>
      <path class="cls-8" d="M184.82,122.5c0-12.12.08-24.24-.06-36.36-.04-3.25.76-4.88,3.91-4.45,1.15.16,2.33.02,3.49.02,266.16,0,532.32,0,798.48.02,8.42,0,7.29-1.19,7.34,8.27.06,10.84,0,21.67,0,32.51-.25.24-.49.48-.73.73-1.51.91-3.17.99-4.83.98-22.83,0-45.65.19-68.48-.08-2.83.29-5.66.15-8.48.15-216.68,0-433.35,0-650.03,0-2.16,0-4.33.1-6.48-.15-22.86.26-45.71.09-68.57.09-1.66,0-3.32-.07-4.84-.98-.25-.24-.49-.49-.73-.74Z"/>
      <path class="cls-1" d="M998,1019.68c0,12.12-.08,24.24.06,36.36.04,3.25-.76,4.88-3.91,4.45-1.15-.16-2.33-.02-3.49-.02-266.16,0-532.32,0-798.48-.02-8.43,0-7.29,1.18-7.34-8.27-.06-10.83-.01-21.67,0-32.51.25-.24.49-.48.73-.73,1.51-.91,3.17-.99,4.83-.98,22.83,0,45.65-.19,68.48.08,2.83-.29,5.66-.15,8.48-.15,216.68,0,433.35,0,650.03,0,2.16,0,4.33-.1,6.48.15,22.86-.26,45.71-.09,68.57-.09,1.66,0,3.32.07,4.84.98.25.24.49.49.73.74Z"/>
      <path class="cls-1" d="M110.9,938.12c-10.99,0-21.97-.08-32.96.07-2.95.04-4.44-.83-4.03-4.32.13-1.08.02-2.2.02-3.3,0-239.65,0-479.3.01-718.95,0-8.54-.86-7.51,7-7.55,9.99-.05,19.97,0,29.96,0,.22.28.44.55.67.83,1.18,2.58.93,5.38.93,8.11.02,238.73.02,477.45,0,716.18,0,2.74.26,5.53-.92,8.12-.22.28-.45.55-.68.82Z"/>
      <path class="cls-1" d="M1071.93,204.06c10.99,0,21.97.08,32.96-.06,2.95-.04,4.44.83,4.03,4.32-.12,1.08-.02,2.2-.02,3.3,0,239.65,0,479.3-.01,718.95,0,8.55.85,7.51-7,7.55-9.99.05-19.97,0-29.96,0-.22-.28-.44-.55-.67-.83-1.18-2.58-.93-5.38-.93-8.11-.02-238.73-.02-477.45,0-716.18,0-2.73-.26-5.53.92-8.12.22-.28.45-.55.68-.82Z"/>
      <path class="cls-1" d="M1034.97,163.28c10.93,0,21.87.11,32.8-.08,3.26-.06,4.29,1.07,4.23,4.67-.17,12.06-.07,24.13-.07,36.19l.02-.02c-1.6,1.6-3.6,1.73-5.6,1.75-8.61.06-17.22.15-25.83-.03-5.82-.12-6.98-1.4-7.09-7.83-.16-9.5-.08-19-.03-28.5.01-1.83.07-3.66.89-5.34.22-.27.45-.55.67-.82Z"/>
      <path class="cls-1" d="M998,122.5c10.93,0,21.87.11,32.8-.08,3.26-.06,4.29,1.07,4.23,4.67-.17,12.06-.07,24.13-.07,36.19l.02-.02c-1.6,1.6-3.6,1.75-5.6,1.76-8.61.07-17.23.15-25.84-.03-5.81-.12-6.99-1.43-7.1-7.84-.16-9.5-.09-19.01-.02-28.51.01-2.21.15-4.41,1.6-6.18l-.02.02Z"/>
      <path class="cls-1" d="M147.86,163.28c0-12.06.1-24.13-.07-36.19-.05-3.6.97-4.73,4.23-4.67,10.93.19,21.87.08,32.8.08l-.02-.02c1.45,1.77,1.57,3.97,1.58,6.18.06,9.5.13,19-.02,28.5-.11,6.42-1.27,7.7-7.09,7.82-8.61.18-17.22.09-25.83.03-1.66-.01-3.32-.08-4.84-.98-.25-.25-.49-.49-.74-.74Z"/>
      <path class="cls-1" d="M110.9,204.06c0-12.06.1-24.13-.07-36.19-.05-3.6.97-4.73,4.23-4.67,10.93.19,21.87.08,32.8.08,0,0-.02-.02-.02-.02,1.45,1.77,1.58,3.97,1.6,6.18.06,9.5.14,19.01-.02,28.51-.11,6.41-1.3,7.71-7.1,7.84-8.61.18-17.23.1-25.84.03-2-.02-3.99-.16-5.6-1.76l.02.02Z"/>
      <path class="cls-1" d="M147.86,978.9c-10.93,0-21.87-.11-32.8.08-3.26.06-4.29-1.07-4.23-4.67.17-12.06.07-24.13.07-36.19,0,0-.02.02-.02.02,1.6-1.6,3.6-1.73,5.6-1.75,8.61-.06,17.22-.15,25.83.03,5.82.12,6.98,1.4,7.09,7.83.16,9.5.08,19,.03,28.5-.01,1.83-.07,3.66-.89,5.34-.22.27-.45.55-.67.82Z"/>
      <path class="cls-1" d="M1071.93,938.12c0,12.06-.1,24.13.07,36.19.05,3.6-.97,4.73-4.23,4.67-10.93-.19-21.87-.08-32.8-.08-.22-.27-.44-.55-.67-.82-1.74-5.33-.76-10.86-.88-16.29-.14-6.39-.15-12.79.06-19.18.12-3.63,1.58-5.96,5.06-6.07,9.93-.31,19.86-.29,29.8,0,1.35.04,2.59.59,3.62,1.61l-.02-.02Z"/>
      <path class="cls-1" d="M184.82,1019.68c-10.93,0-21.87-.11-32.8.08-3.26.06-4.29-1.07-4.23-4.67.17-12.06.07-24.13.07-36.19,0,0-.02.02-.02.02,1.6-1.6,3.6-1.75,5.6-1.76,8.61-.07,17.23-.15,25.84.03,5.81.12,6.99,1.43,7.1,7.84.16,9.5.09,19.01.02,28.51-.01,2.21-.15,4.41-1.6,6.18l.02-.02Z"/>
      <path class="cls-1" d="M1034.97,978.9c0,12.06-.1,24.13.07,36.19.05,3.6-.97,4.73-4.23,4.67-10.93-.19-21.87-.08-32.8-.08l.02.02c-1.45-1.77-1.58-3.97-1.6-6.18-.06-9.5-.14-19.01.02-28.51.11-6.41,1.3-7.71,7.1-7.84,8.61-.18,17.23-.1,25.84-.03,2,.02,3.99.16,5.6,1.76l-.02-.02Z"/>
      <path class="cls-4" d="M924.14,1019.54c-1.83.05-3.66.14-5.49.14-218.16,0-436.32,0-654.48,0-1.83,0-3.66-.09-5.49-.14-1.77-2.12-1.5-4.78-1.52-7.32-.07-8.45-.13-16.9.01-25.35.07-4.47-1.53-6.27-5.58-6.22-7.82.1-15.65.14-23.47-.02-6.65-.14-7.8-1.43-7.91-8.81-.12-7.71-.01-15.43-.04-23.14-.03-8.51-.23-8.74-7.74-8.78-7.16-.04-14.32.1-21.48-.06-6.33-.14-7.56-1.49-7.69-8.49-.16-8.45.03-16.9-.08-25.35-.08-6.25-.61-6.81-6.41-6.87-7.66-.09-15.32.09-22.98-.07-6.14-.13-7.28-1.44-7.51-8.08-.08-2.2-.03-4.41-.03-6.61,0-208.86,0-417.72,0-626.58q0-14.74,13.54-14.74c5.66,0,11.32.05,16.98-.02,5.8-.08,6.33-.62,6.41-6.87.1-8.27-.06-16.53.06-24.8.11-7.66,1.27-8.94,8.21-9.06,6.99-.12,13.99,0,20.98-.04,7.51-.04,7.71-.27,7.74-8.78.03-7.9-.1-15.8.05-23.7.13-6.71,1.35-8.07,7.4-8.23,7.82-.21,15.65.03,23.47-.1,5.48-.09,5.95-.63,6.02-6.71.09-8.27-.02-16.53.05-24.8.02-2.54-.25-5.2,1.52-7.32,1.83-.05,3.66-.14,5.49-.14,218.16,0,436.32,0,654.48,0,1.83,0,3.66.09,5.49.14,1.77,2.12,1.5,4.78,1.52,7.32.07,8.45.13,16.9-.01,25.35-.07,4.47,1.53,6.27,5.58,6.22,7.82-.1,15.65-.14,23.47.02,6.65.14,7.8,1.43,7.91,8.81.12,7.71.01,15.43.04,23.14.03,8.51.23,8.74,7.74,8.78,7.16.04,14.32-.1,21.48.06,6.34.14,7.56,1.49,7.69,8.49.16,8.45-.03,16.9.08,25.35.08,6.25.61,6.81,6.41,6.87,7.66.09,15.32-.09,22.98.07,6.14.13,7.28,1.44,7.51,8.08.07,2.02.03,4.04.03,6.06,0,209.23,0,418.45,0,627.68q0,14.19-13.04,14.19c-5.83,0-11.66-.05-17.48.02-5.8.07-6.33.62-6.41,6.87-.1,8.45.08,16.9-.08,25.35-.13,7-1.36,8.35-7.69,8.49-7.16.16-14.32.02-21.48.06-7.51.04-7.71.27-7.74,8.78-.03,7.9.1,15.8-.05,23.7-.13,6.71-1.35,8.07-7.4,8.24-7.82.21-15.65-.03-23.47.1-5.48.09-5.95.63-6.02,6.71-.09,8.27.02,16.53-.05,24.8-.02,2.54.25,5.2-1.52,7.32Z"/>
      <path class="cls-5" d="M258.69,122.63c.02,11.94-.1,23.88.13,35.81.08,3.96-1.14,4.99-4.57,4.9-9.15-.23-18.32.11-27.46-.16-3.81-.11-5.25.9-5.11,5.44.32,10.27-.03,20.57.17,30.85.07,3.66-1.04,4.72-4.28,4.65-8.99-.21-17.99.17-26.96-.17-4.39-.17-6.13.93-5.91,6.25.41,10.08.01,20.2.18,30.3.06,3.38-.94,4.46-3.99,4.4-9.15-.18-18.32.26-27.46-.2-4.83-.24-6.24,1.71-5.57,6.52.05.36,0,.73,0,1.1,0,212.51,0,425.02,0,637.53,0,8.32-.84,7.44,6.55,7.48,8.82.04,17.65.13,26.47-.05,3.05-.06,4.05,1.02,3.99,4.4-.17,10.1.24,20.22-.18,30.3-.22,5.32,1.52,6.42,5.91,6.25,8.98-.34,17.98.03,26.96-.17,3.24-.07,4.35.99,4.28,4.65-.2,10.28.15,20.58-.17,30.85-.14,4.54,1.31,5.55,5.11,5.44,9.15-.27,18.31.06,27.46-.16,3.42-.09,4.64.95,4.56,4.9-.23,11.93-.12,23.87-.13,35.81-24.63.05-49.26.11-73.88.16,0-12.09-.11-24.17.08-36.26.06-3.6-.92-4.68-4.19-4.62-10.95.21-21.91.09-32.86.09,0-12.09-.11-24.17.08-36.26.06-3.6-.92-4.68-4.19-4.62-10.95.21-21.91.09-32.86.09,0-244.7,0-489.4,0-734.11,10.95,0,21.91-.12,32.86.09,3.26.06,4.24-1.02,4.19-4.62-.19-12.08-.08-24.17-.08-36.26,10.95,0,21.91-.12,32.86.09,3.26.06,4.24-1.02,4.19-4.62-.19-12.08-.08-24.17-.08-36.26,24.63.05,49.26.11,73.88.16Z"/>
      <path class="cls-7" d="M924.14,1019.54c-.02-11.94.1-23.88-.13-35.81-.08-3.96,1.14-4.98,4.57-4.9,9.15.23,18.32-.1,27.46.16,3.81.11,5.25-.9,5.11-5.44-.32-10.27.03-20.57-.17-30.85-.07-3.66,1.04-4.72,4.28-4.65,8.99.21,17.99-.17,26.96.17,4.39.17,6.13-.93,5.91-6.25-.41-10.08-.01-20.2-.18-30.3-.06-3.38.94-4.46,3.99-4.4,9.15.18,18.32-.26,27.46.2,4.83.24,6.24-1.71,5.58-6.52-.05-.36,0-.73,0-1.1,0-212.51,0-425.02,0-637.53,0-8.32.83-7.44-6.55-7.48-8.82-.04-17.65-.13-26.47.05-3.05.06-4.05-1.02-3.99-4.4.17-10.1-.24-20.22.18-30.3.22-5.32-1.52-6.42-5.91-6.25-8.98.34-17.98-.03-26.96.17-3.24.07-4.35-.99-4.28-4.65.2-10.28-.15-20.58.17-30.85.14-4.54-1.31-5.55-5.11-5.44-9.15.27-18.31-.06-27.46.16-3.42.08-4.64-.95-4.56-4.9.23-11.93.12-23.87.13-35.81,24.63-.05,49.26-.11,73.88-.16,0,12.09.11,24.17-.08,36.26-.06,3.6.92,4.68,4.19,4.62,10.95-.21,21.91-.09,32.86-.09,0,12.09.11,24.17-.08,36.26-.06,3.6.92,4.68,4.19,4.62,10.95-.21,21.91-.09,32.86-.09,0,244.7,0,489.4,0,734.11-10.95,0-21.91.12-32.86-.09-3.26-.06-4.24,1.02-4.19,4.62.19,12.08.08,24.17.08,36.26-10.95,0-21.91.12-32.86-.09-3.26-.06-4.24,1.02-4.19,4.62.19,12.08.08,24.17.08,36.26-24.63-.05-49.26-.11-73.88-.16Z"/>
      <path class="cls-2" d="M332.7,204.17c1.83-.04,3.66-.11,5.49-.11,168.6,0,337.2.02,505.79-.12,4.76,0,6.33.84,6.32,6.68-.22,77.31-.1,154.61-.24,231.92,0,4.86.9,6.4,5.59,6.35,22.8-.27,45.6-.06,68.4-.02,1.8,2.07,1.62,4.72,1.62,7.25.04,22.31.04,44.62,0,66.93,0,2.55.09,5.17-1.69,7.24l.07-.08c-1.87,1.97-4.25,1.8-6.56,1.81-7.78.06-15.56.15-23.33-.03-4.06-.09-5.61,1.63-5.53,6.1.16,8.58.08,17.16.02,25.74-.02,2.54.14,5.17-1.64,7.23l.07-.08c-1.88,1.97-4.27,1.8-6.58,1.82-7.31.06-14.62-.01-21.92.03-6.55.04-6.81.31-6.85,7.33-.05,8.43.08,16.86-.05,25.29-.11,6.76-1.22,7.99-7.35,8.11-7.64.15-15.28,0-22.92.06-6.37.05-6.61.33-6.65,7.56-.04,8.06.02,16.12-.03,24.19-.02,2.55.14,5.18-1.65,7.26l.07-.08c-.88.88-1.89,1.56-3.08,1.57-11.01.13-22.04.98-33.03-.48-.6-.28-1.08-.73-1.44-1.33-1.79-6.06-.67-12.31-.89-18.48-.18-4.92-.14-9.86-.01-14.79.1-3.97-1.39-5.57-5-5.52-7.78.11-15.56.06-23.34.02-2.14-.01-4.31.14-6.38-.74-.58-.29-1.04-.75-1.38-1.34-1.76-6.81-.58-13.77-.86-20.66-.17-4.19-.14-8.4,0-12.58.12-4.01-1.48-5.52-5.03-5.47-7.77.11-15.54.06-23.31.02-2.14-.01-4.31.14-6.37-.74-.58-.29-1.04-.75-1.38-1.35-1.63-5.17-.7-10.52-.85-15.78-.15-5.3,0-10.61-.04-15.92-.05-6.57-.34-6.91-6.12-6.96-7.3-.06-14.59,0-21.89-.03-2.31-.01-4.66.2-6.88-.85-.59-.35-1.03-.85-1.33-1.51-.88-2.27-.78-4.67-.78-7.05-.02-22.01-.03-44.02,0-66.03,0-2.72-.27-5.54,1.27-7.99,2.48-2.05,5.4-1.56,8.18-1.57,19.13-.05,38.26,0,57.38-.04,6.86-.01,7.03-.22,7.06-7.65.1-24.04-.16-48.08.12-72.12-.28-9.91-.07-19.82-.12-29.74-.05-9.23-.05-9.28-8.24-9.29-24.46-.02-48.92,0-73.38,0-67.06,0-134.11,0-201.17,0-9.71,0-9.68,0-9.72,10.95-.04,9.36.17,18.72-.11,28.08.22,2.75.13,5.51.13,8.26,0,142.52,0,285.04,0,427.56q0,10.96,9.73,10.96c91.22,0,182.44,0,273.67,0q9.06,0,9.07-9.96c0-32.32,0-64.65,0-96.97,0-2.02-.02-4.04.02-6.06.15-8.08,1.16-9.3,8.44-9.32,9.99-.03,19.97-.23,29.96.11,10.48-.27,20.96-.09,31.43-.09,1.99,0,4.02.01,5.69,1.55,10.98.06,21.96.2,32.94.13,2.71-.02,4.13.22,4.12,4.01-.14,80.23-.15,160.47-.19,240.7-1.42,1.57-3.26,1.69-5.1,1.78-2,.1-4,.06-5.99.06-164.99,0-329.99,0-494.98,0q-12.93,0-12.93-14.29c0-236.59,0-473.19.04-709.78,0-3.93-.96-8.14,1.62-11.68Z"/>
      <path class="cls-1" d="M332.7,204.17c-.01,177.59-.02,355.19-.03,532.78,0,65.38.04,130.76-.09,196.14,0,4.08.84,5.13,4.61,5.13,170.95-.13,341.91-.13,512.86-.14.03,12.12,0,24.25.16,36.37.04,3.23-.71,4.92-3.89,4.47-.98-.14-2-.02-2.99-.02-180.31,0-360.62,0-540.93,0q-6.68,0-6.68-7.38c0-253.31,0-506.62.01-759.93,0-8.52-.86-7.5,7.02-7.53,9.99-.03,19.98.06,29.97.1Z"/>
      <path class="cls-1" d="M813.1,652.63c.03-12.1.19-24.2.02-36.29-.05-3.57.81-4.64,4.1-4.55,9.8.24,19.61-.03,29.41.16,2.84.05,3.65-.84,3.6-3.97-.17-11,.04-22-.13-33-.05-3.13.81-3.99,3.61-3.95,11.13.13,22.26,0,33.39-.03,0,25.5-.07,51,.1,76.5.03,4.12-1.03,5.29-4.76,5.25-23.11-.19-46.23-.11-69.34-.11Z"/>
      <path class="cls-1" d="M923.99,530.28c.02-27.14.04-54.28.06-81.42,10.98-.04,21.96.05,32.93-.19,3.43-.08,4.14,1.38,4.12,4.82-.11,24.04-.14,48.09.02,72.13.03,4.13-1.46,4.8-4.7,4.75-10.81-.18-21.62-.08-32.44-.09Z"/>
      <path class="cls-1" d="M887.03,571.07c.03-12.1.19-24.21.02-36.31-.05-3.6.85-4.6,4.11-4.54,10.97.2,21.94.02,32.91-.02,0,12.09-.09,24.19.09,36.28.05,3.61-.97,4.74-4.24,4.68-10.96-.2-21.92-.09-32.88-.09Z"/>
      <path class="cls-1" d="M776.26,652.53c12.3,0,24.61.01,36.91.02,0,13.57,0,27.14,0,40.7-12.31,0-24.62,0-36.94,0-1.45-1.55-1.54-3.59-1.56-5.59-.1-9.85-.1-19.7,0-29.56.02-2,.07-4.05,1.57-5.57Z"/>
      <path class="cls-4" d="M776.26,652.53c0,13.57-.01,27.15-.02,40.72-10.81.06-21.63.33-32.44.07-3.8-.09-4.64,1.11-4.62,5.18.15,36.91,0,73.82.2,110.72.03,5.05-.74,6.71-5.79,6.7-95.03-.2-190.06-.17-285.1-.07-3.67,0-5.04-.67-5.04-5.25.13-146.53.1-293.06.11-439.6,0-1.28.1-2.56.16-3.84,2.72-2.56,6.02-1.74,9.1-1.74,70.58-.05,141.17-.04,211.75-.04,22.14,0,44.28-.03,66.42.03,2.77,0,5.72-.62,8.1,1.74.05,26.06.04,52.11.23,78.17.03,3.85-1.91,3.42-4.1,3.42-21.46-.02-42.92-.01-64.37,0-1.83,0-3.66.07-5.48.11-1.98,1.78-4.36,1.58-6.67,1.6-7.82.06-15.63.1-23.45,0-3.78-.05-5.35,1.56-5.33,5.82.07,22.2.07,44.4,0,66.6-.01,4.35,1.71,5.78,5.42,5.72,7.65-.11,15.3-.06,22.95-.01,2.48.02,5.03-.23,7.15,1.7l-.07-.08c1.63,2.15,1.52,4.76,1.54,7.31.05,8.59.13,17.19-.03,25.78-.09,4.48,1.48,6.2,5.54,6.11,7.78-.18,15.58-.08,23.36-.03,2.32.01,4.68-.1,6.63,1.69l-.07-.08c1.63,2.15,1.52,4.76,1.54,7.31.05,8.59.13,17.19-.03,25.78-.08,4.48,1.48,6.2,5.54,6.11,7.78-.18,15.58-.08,23.36-.03,2.32.01,4.68-.1,6.63,1.69l-.07-.08c1.63,2.15,1.52,4.76,1.54,7.31.05,8.59.13,17.19-.03,25.78-.08,4.48,1.48,6.2,5.54,6.11,7.78-.18,15.58-.08,23.36-.03,2.32.01,4.68-.1,6.63,1.69l-.06-.1Z"/>
      <path class="cls-1" d="M739.1,367.16c-98.46,0-196.92,0-295.38,0-.05-12.48-.05-24.96-.21-37.44-.04-2.69.76-3.68,3.12-3.34.82.12,1.66.02,2.49.02,94.86,0,189.72.04,284.58-.11,4.47,0,5.87,1.1,5.68,6.2-.42,11.55-.23,23.12-.28,34.68Z"/>
      <path class="cls-1" d="M665.43,530.28c-10.81,0-21.63-.09-32.44.09-3.24.05-4.73-.63-4.7-4.75.16-24.04.13-48.09.02-72.13-.02-3.45.7-4.9,4.12-4.82,10.97.24,21.95.15,32.93.19.02,27.14.04,54.28.06,81.42Z"/>
      <path class="cls-1" d="M739.36,611.85c-10.96,0-21.92-.1-32.88.09-3.27.06-4.3-1.08-4.24-4.68.18-12.09.08-24.18.09-36.28,10.97.03,21.94.21,32.91.02,3.26-.06,4.17.94,4.11,4.54-.18,12.1-.02,24.2.01,36.31Z"/>
      <path class="cls-1" d="M776.32,652.63c-10.96,0-21.92-.1-32.88.09-3.27.06-4.3-1.08-4.24-4.68.18-12.09.08-24.18.09-36.28,10.97.03,21.94.21,32.91.02,3.26-.06,4.17.94,4.11,4.54-.18,12.1-.02,24.2.01,36.31Z"/>
      <path class="cls-1" d="M702.4,571.07c-10.96,0-21.92-.1-32.88.09-3.27.06-4.3-1.08-4.24-4.68.18-12.09.08-24.18.09-36.28,10.97.03,21.94.21,32.91.02,3.26-.06,4.17.94,4.11,4.54-.18,12.1-.02,24.2.01,36.31Z"/>
    </g>
  </g>
</svg>